<?xml version="1.0" standalone="no"?>
<!DOCTYPE svg PUBLIC "-//W3C//DTD SVG 20010904//EN"
 "http://www.w3.org/TR/2001/REC-SVG-20010904/DTD/svg10.dtd">
<svg version="1.0" xmlns="http://www.w3.org/2000/svg"
 width="544.000000pt" height="184.000000pt" viewBox="0 0 544.000000 184.000000"
 preserveAspectRatio="xMidYMid meet">

<g transform="translate(0.000000,184.000000) scale(0.100000,-0.100000)"
fill="#000000" stroke="none">
<path d="M610 1819 c-155 -23 -276 -85 -395 -204 -139 -138 -199 -284 -198
-480 0 -91 5 -124 26 -190 45 -138 129 -257 240 -341 270 -205 659 -190 885
34 120 119 172 257 172 454 l0 108 -320 0 -320 0 0 -85 0 -85 224 0 c139 0
227 -4 231 -10 10 -16 -22 -128 -52 -182 -44 -81 -147 -155 -258 -184 -27 -8
-89 -14 -136 -14 -285 0 -499 214 -499 500 0 270 190 480 457 505 117 11 258
-30 342 -101 l32 -27 64 63 64 63 -47 39 c-129 107 -337 163 -512 137z"/>
<path d="M1786 1330 c-81 -14 -188 -73 -241 -132 -54 -61 -77 -101 -100 -183
-22 -73 -16 -208 10 -275 70 -177 224 -280 415 -280 266 0 455 202 438 469
-12 177 -116 318 -281 380 -64 23 -173 33 -241 21z m190 -188 c56 -28 93 -69
122 -131 34 -73 29 -186 -11 -254 -50 -85 -123 -129 -217 -129 -145 0 -250
112 -250 267 0 130 69 227 190 266 38 13 123 3 166 -19z"/>
<path d="M3718 1329 c-224 -31 -393 -268 -358 -499 31 -196 198 -356 384 -368
93 -6 167 15 223 63 23 19 44 35 48 35 5 0 5 -38 2 -86 -6 -105 -34 -165 -96
-209 -37 -26 -53 -30 -121 -34 -112 -5 -171 26 -240 126 l-15 22 -76 -32 -77
-32 18 -36 c48 -93 154 -176 264 -205 151 -40 331 12 422 124 92 111 104 195
104 735 l0 387 -90 0 -90 0 0 -40 c0 -22 -2 -40 -4 -40 -2 0 -27 15 -55 34
-79 53 -145 68 -243 55z m143 -171 c51 -15 114 -70 141 -122 29 -56 36 -176
14 -243 -35 -107 -116 -167 -226 -167 -178 0 -290 174 -234 365 12 41 28 66
68 104 71 70 147 90 237 63z"/>
<path d="M4910 1326 c-167 -36 -301 -189 -318 -363 -21 -208 64 -376 236 -460
66 -33 85 -38 167 -41 100 -5 180 12 245 50 42 25 140 118 140 133 0 10 -123
95 -138 95 -5 0 -17 -12 -29 -28 -11 -15 -44 -40 -73 -56 -63 -34 -149 -39
-218 -11 -41 17 -112 86 -112 110 0 7 130 66 290 131 178 73 290 124 290 133
0 35 -68 150 -119 202 -63 62 -121 94 -200 109 -66 12 -90 12 -161 -4z m187
-175 c44 -20 82 -66 67 -80 -9 -8 -378 -161 -388 -161 -10 0 -6 35 9 88 40
133 191 207 312 153z"/>
</g>
</svg>
